<?xml version="1.0" encoding="UTF-8" standalone="no"?>
<!-- Created with Inkscape (http://www.inkscape.org/) -->

<svg
   width="44"
   height="44"
   viewBox="0 0 11.641666 11.641667"
   version="1.1"
   id="svg856"
   inkscape:version="1.1.2 (0a00cf5339, 2022-02-04)"
   sodipodi:docname="BoldWhiteIcon44x44.svg"
   xmlns:inkscape="http://www.inkscape.org/namespaces/inkscape"
   xmlns:sodipodi="http://sodipodi.sourceforge.net/DTD/sodipodi-0.dtd"
   xmlns="http://www.w3.org/2000/svg"
   xmlns:svg="http://www.w3.org/2000/svg">
  <sodipodi:namedview
     id="namedview858"
     pagecolor="#ffffff"
     bordercolor="#666666"
     borderopacity="1.0"
     inkscape:pageshadow="2"
     inkscape:pageopacity="0.0"
     inkscape:pagecheckerboard="0"
     inkscape:document-units="mm"
     showgrid="false"
     units="px"
     inkscape:zoom="11.431425"
     inkscape:cx="2.1432149"
     inkscape:cy="26.505882"
     inkscape:window-width="1920"
     inkscape:window-height="1011"
     inkscape:window-x="0"
     inkscape:window-y="0"
     inkscape:window-maximized="1"
     inkscape:current-layer="layer2" />
  <defs
     id="defs853">
    <inkscape:perspective
       sodipodi:type="inkscape:persp3d"
       inkscape:vp_x="0 : 5.8208335 : 1"
       inkscape:vp_y="0 : 1000 : 0"
       inkscape:vp_z="11.641666 : 5.8208335 : 1"
       inkscape:persp3d-origin="5.820833 : 3.8805557 : 1"
       id="perspective1438" />
  </defs>
  <g
     inkscape:groupmode="layer"
     id="layer2"
     inkscape:label="Layer 2" />
  <g
     inkscape:label="Layer 1"
     inkscape:groupmode="layer"
     id="layer1">
    <path
       style="display:inline;opacity:0;fill:#ffdf8a;fill-opacity:1;stroke:#ffe6ab;stroke-width:0.934421;stroke-miterlimit:4;stroke-dasharray:none;stroke-opacity:1"
       d="M 0.79589357,6.5233527 C 0.75666217,6.2448809 0.75001357,5.7060342 0.7821536,5.4097274 0.89371101,4.3812297 1.2684014,3.4879672 1.925764,2.6833578 2.0487848,2.5327807 2.3527435,2.2238479 2.5104133,2.0891409 3.2945263,1.4192249 4.2007872,1.0227483 5.2380225,0.89584979 c 0.1327999,-0.0162461 0.6391901,-0.0353426 0.6278866,-0.0236761 -0.00295,0.003043 -0.047822,0.0230369 -0.099711,0.0444215 C 5.3052981,1.106552 4.7896559,1.4696228 4.4322683,1.855833 4.3236877,1.9731705 4.2993471,2.0195493 4.2993471,2.1091036 c 0,0.1049618 0.049177,0.184918 0.1432546,0.232916 0.03395,0.01732 0.057735,0.020672 0.1235713,0.01741 0.076535,-0.0038 0.087365,-0.00758 0.1768063,-0.061846 C 4.9351901,2.1809686 5.2940081,2.0410454 5.5717432,1.974402 5.9906633,1.8738816 6.4200179,1.8538575 6.7299238,1.920389 7.0950118,1.9987666 7.4369768,2.1903699 7.7173696,2.4736545 8.1019358,2.862188 8.2841117,3.3704711 8.2264442,3.8940104 8.1887979,4.2357817 8.0392458,4.7364335 7.8811341,5.0499951 7.7195576,5.3704282 7.4771927,5.6396759 7.2663854,5.7329318 c -0.077042,0.03408 -0.4280505,0.09202 -0.7120429,0.117534 -0.168914,0.015177 -0.4471231,0.00789 -0.5167045,-0.013532 l -0.048299,-0.01487 -0.0076,-0.075773 C 5.9580614,5.5104362 5.7984663,5.3395972 5.5348363,5.2679118 5.4099602,5.2339552 5.1560239,5.2345775 5.0233598,5.26915 4.8906432,5.30375 4.8257776,5.334502 4.7831878,5.3830121 c -0.061716,0.070294 -0.066832,0.093909 -0.066544,0.3071876 1.73e-4,0.1284587 -0.00339,0.1904583 -0.010699,0.1859434 -0.0064,-0.00396 -0.00991,-0.044664 -0.00845,-0.097875 0.00344,-0.1248867 -0.012034,-0.1340213 -0.1336449,-0.078876 -0.038897,0.017639 -0.077585,0.029432 -0.085978,0.026213 -0.00954,-0.00366 -0.020197,-0.036734 -0.028463,-0.088419 -0.00725,-0.045411 -0.018132,-0.088602 -0.024152,-0.095982 -0.019762,-0.024222 -0.056762,-0.014143 -0.1253346,0.034145 -0.037148,0.02616 -0.074069,0.045059 -0.082043,0.041998 -0.00798,-0.00306 -0.028559,-0.042577 -0.045741,-0.087814 -0.028204,-0.074262 -0.034248,-0.082554 -0.062265,-0.085376 -0.025389,-0.00256 -0.041688,0.00768 -0.089693,0.056351 -0.032264,0.032714 -0.066228,0.05948 -0.075471,0.05948 -0.00925,0 -0.035973,-0.031428 -0.059399,-0.069841 -0.042926,-0.070386 -0.064472,-0.086905 -0.098943,-0.075859 -0.01033,0.00331 -0.037951,0.037447 -0.061375,0.075859 -0.023427,0.038412 -0.050155,0.069841 -0.059399,0.069841 -0.00925,0 -0.043039,-0.026565 -0.075106,-0.059036 -0.085058,-0.086131 -0.1172668,-0.077941 -0.1563608,0.039768 -0.00941,0.028307 -0.020415,0.051469 -0.024473,0.051469 -0.012607,0 -0.087494,-0.05396 -0.087494,-0.063044 0,-0.00472 0.022005,-0.029223 0.048894,-0.05443 0.063997,-0.059987 0.061527,-0.084194 -0.011329,-0.1109791 -0.083919,-0.030851 -0.08693,-0.037798 -0.043103,-0.099446 0.059411,-0.083567 0.050601,-0.1002762 -0.061544,-0.1167461 -0.060071,-0.00882 -0.063789,-0.022173 -0.027163,-0.09756 0.033437,-0.068827 0.021291,-0.084748 -0.067867,-0.088969 -0.037757,-0.00177 -0.072107,-0.00669 -0.076335,-0.010906 -0.00423,-0.00422 -2.676e-4,-0.036056 0.0088,-0.070761 0.014873,-0.056963 0.014851,-0.064732 -2.348e-4,-0.079819 -0.01452,-0.014522 -0.02522,-0.014959 -0.081498,-0.00333 -0.035631,0.00735 -0.069496,0.010465 -0.075259,0.00691 -0.00576,-0.00357 -0.010477,-0.039484 -0.010477,-0.079829 0,-0.090341 -0.011317,-0.097519 -0.094047,-0.059642 -0.072145,0.03303 -0.083304,0.026582 -0.093363,-0.053938 -0.010255,-0.082101 -0.029144,-0.089838 -0.1035611,-0.042422 -0.03182,0.020275 -0.06311,0.03699 -0.069527,0.037139 -0.00642,1.483e-4 -0.020857,-0.026736 -0.032078,-0.059754 -0.031512,-0.092719 -0.062448,-0.099109 -0.1218568,-0.025178 -0.018684,0.023248 -0.040838,0.042273 -0.049232,0.042273 -0.0084,0 -0.032257,-0.026565 -0.053024,-0.059036 -0.051081,-0.079856 -0.072845,-0.077027 -0.1252863,0.016282 -0.013214,0.023514 -0.02901,0.042751 -0.035098,0.042751 -0.00609,0 -0.033642,-0.022231 -0.061227,-0.049404 -0.064693,-0.063724 -0.084412,-0.058933 -0.116193,0.02824 -0.012855,0.035257 -0.028016,0.064101 -0.033692,0.064101 -0.00568,0 -0.036015,-0.017059 -0.067417,-0.037912 -0.034229,-0.022728 -0.06399,-0.035265 -0.074312,-0.031303 -0.016665,0.00638 -0.020652,0.018108 -0.035476,0.1042189 -0.00382,0.022201 -0.010905,0.042816 -0.015743,0.045804 -0.00483,0.00298 -0.036128,-0.00664 -0.069539,-0.021433 -0.084827,-0.037518 -0.099739,-0.02792 -0.1038944,0.066865 l -0.00318,0.072336 -0.042932,-0.00456 c -0.023613,-0.00252 -0.059836,-0.00491 -0.080499,-0.00536 -0.036949,-7.784e-4 -0.037551,-8.65e-5 -0.036668,0.042139 4.864e-4,0.023614 0.00291,0.059841 0.00537,0.080503 l 0.00446,0.037569 -0.072332,0.00317 c -0.094778,0.00415 -0.104376,0.019068 -0.066861,0.1039006 0.014777,0.033414 0.02442,0.064708 0.021432,0.069543 -0.00298,0.00483 -0.023599,0.011921 -0.0458,0.015743 -0.086106,0.014826 -0.097817,0.018813 -0.1042131,0.035478 -0.00397,0.010348 0.00883,0.040461 0.032072,0.07547 0.02127,0.032041 0.03653,0.063847 0.03391,0.070682 -0.00263,0.00682 -0.031862,0.021632 -0.064976,0.032888 -0.082828,0.028151 -0.087198,0.048549 -0.024127,0.1125896 0.027171,0.027588 0.049394,0.054824 0.049383,0.060522 -1.05e-5,0.0057 -0.022953,0.024648 -0.050983,0.042105 -0.086368,0.053788 -0.087274,0.067326 -0.00803,0.1199439 0.032467,0.021558 0.059032,0.045532 0.059032,0.053272 0,0.00773 -0.019229,0.029527 -0.042726,0.048413 -0.046446,0.037326 -0.061819,0.067601 -0.044765,0.088154 0.00598,0.00721 0.037778,0.022257 0.070652,0.033431 0.032875,0.011173 0.05977,0.025636 0.05977,0.032135 0,0.0065 -0.017056,0.037146 -0.037905,0.068103 -0.04938,0.073331 -0.040759,0.094399 0.042909,0.1048536 0.080516,0.010051 0.086963,0.02122 0.053934,0.093367 -0.037933,0.082865 -0.030765,0.094053 0.060272,0.094053 0.04069,0 0.073985,0.00252 0.073985,0.0056 0,0.016634 -0.058828,0.091007 -0.071982,0.091007 -0.00851,0 -0.039743,-0.026566 -0.069416,-0.059036 -0.035978,-0.039375 -0.062309,-0.059036 -0.079066,-0.059036 -0.029835,0 -0.034058,0.00575 -0.070767,0.096484 -0.015553,0.038439 -0.035515,0.071342 -0.044361,0.07312 -0.00885,0.00177 -0.044014,-0.016337 -0.0781503,-0.040252 -0.0982196,-0.068796 -0.12413335,-0.058892 -0.13900694,0.053134 -0.00431,0.032469 -0.0122828,0.067487 -0.0177126,0.07782 -0.0176663,0.033602 -0.0385355,0.021242 -0.0453083,-0.026834 z"
       id="path4932" />
    <path
       style="display:inline;opacity:0;fill:#ffdf8a;fill-opacity:1;stroke:#ffe6ab;stroke-width:0.934421;stroke-miterlimit:4;stroke-dasharray:none;stroke-opacity:1"
       d="M 0.79589357,6.5233527 C 0.75666217,6.2448809 0.75001357,5.7060342 0.7821536,5.4097274 0.89371101,4.3812297 1.2684014,3.4879672 1.925764,2.6833578 2.0487848,2.5327807 2.3527435,2.2238479 2.5104133,2.0891409 3.2945263,1.4192249 4.2007872,1.0227483 5.2380225,0.89584979 c 0.1327999,-0.0162461 0.6391901,-0.0353426 0.6278866,-0.0236761 -0.00295,0.003043 -0.047822,0.0230369 -0.099711,0.0444215 C 5.3052981,1.106552 4.7896559,1.4696228 4.4322683,1.855833 4.3236877,1.9731705 4.2993471,2.0195493 4.2993471,2.1091036 c 0,0.1049618 0.049177,0.184918 0.1432546,0.232916 0.03395,0.01732 0.057735,0.020672 0.1235713,0.01741 0.076535,-0.0038 0.087365,-0.00758 0.1768063,-0.061846 C 4.9351901,2.1809686 5.2940081,2.0410454 5.5717432,1.974402 5.9906633,1.8738816 6.4200179,1.8538575 6.7299238,1.920389 7.0950118,1.9987666 7.4369768,2.1903699 7.7173696,2.4736545 8.1019358,2.862188 8.2841117,3.3704711 8.2264442,3.8940104 8.1887979,4.2357817 8.0392458,4.7364335 7.8811341,5.0499951 7.7195576,5.3704282 7.4771927,5.6396759 7.2663854,5.7329318 c -0.077042,0.03408 -0.4280505,0.09202 -0.7120429,0.117534 -0.168914,0.015177 -0.4471231,0.00789 -0.5167045,-0.013532 l -0.048299,-0.01487 -0.0076,-0.075773 C 5.9580614,5.5104362 5.7984663,5.3395972 5.5348363,5.2679118 5.4099602,5.2339552 5.1560239,5.2345775 5.0233598,5.26915 4.8906432,5.30375 4.8257776,5.334502 4.7831878,5.3830121 c -0.061716,0.070294 -0.066832,0.093909 -0.066544,0.3071876 1.73e-4,0.1284587 -0.00339,0.1904583 -0.010699,0.1859434 -0.0064,-0.00396 -0.00991,-0.044664 -0.00845,-0.097875 0.00344,-0.1248867 -0.012034,-0.1340213 -0.1336449,-0.078876 -0.038897,0.017639 -0.077585,0.029432 -0.085978,0.026213 -0.00954,-0.00366 -0.020197,-0.036734 -0.028463,-0.088419 -0.00725,-0.045411 -0.018132,-0.088602 -0.024152,-0.095982 -0.019762,-0.024222 -0.056762,-0.014143 -0.1253346,0.034145 -0.037148,0.02616 -0.074069,0.045059 -0.082043,0.041998 -0.00798,-0.00306 -0.028559,-0.042577 -0.045741,-0.087814 -0.028204,-0.074262 -0.034248,-0.082554 -0.062265,-0.085376 -0.025389,-0.00256 -0.041688,0.00768 -0.089693,0.056351 -0.032264,0.032714 -0.066228,0.05948 -0.075471,0.05948 -0.00925,0 -0.035973,-0.031428 -0.059399,-0.069841 -0.042926,-0.070386 -0.064472,-0.086905 -0.098943,-0.075859 -0.01033,0.00331 -0.037951,0.037447 -0.061375,0.075859 -0.023427,0.038412 -0.050155,0.069841 -0.059399,0.069841 -0.00925,0 -0.043039,-0.026565 -0.075106,-0.059036 -0.085058,-0.086131 -0.1172668,-0.077941 -0.1563608,0.039768 -0.00941,0.028307 -0.020415,0.051469 -0.024473,0.051469 -0.012607,0 -0.087494,-0.05396 -0.087494,-0.063044 0,-0.00472 0.022005,-0.029223 0.048894,-0.05443 0.063997,-0.059987 0.061527,-0.084194 -0.011329,-0.1109791 -0.083919,-0.030851 -0.08693,-0.037798 -0.043103,-0.099446 0.059411,-0.083567 0.050601,-0.1002762 -0.061544,-0.1167461 -0.060071,-0.00882 -0.063789,-0.022173 -0.027163,-0.09756 0.033437,-0.068827 0.021291,-0.084748 -0.067867,-0.088969 -0.037757,-0.00177 -0.072107,-0.00669 -0.076335,-0.010906 -0.00423,-0.00422 -2.676e-4,-0.036056 0.0088,-0.070761 0.014873,-0.056963 0.014851,-0.064732 -2.348e-4,-0.079819 -0.01452,-0.014522 -0.02522,-0.014959 -0.081498,-0.00333 -0.035631,0.00735 -0.069496,0.010465 -0.075259,0.00691 -0.00576,-0.00357 -0.010477,-0.039484 -0.010477,-0.079829 0,-0.090341 -0.011317,-0.097519 -0.094047,-0.059642 -0.072145,0.03303 -0.083304,0.026582 -0.093363,-0.053938 -0.010255,-0.082101 -0.029144,-0.089838 -0.1035611,-0.042422 -0.03182,0.020275 -0.06311,0.03699 -0.069527,0.037139 -0.00642,1.483e-4 -0.020857,-0.026736 -0.032078,-0.059754 -0.031512,-0.092719 -0.062448,-0.099109 -0.1218568,-0.025178 -0.018684,0.023248 -0.040838,0.042273 -0.049232,0.042273 -0.0084,0 -0.032257,-0.026565 -0.053024,-0.059036 -0.051081,-0.079856 -0.072845,-0.077027 -0.1252863,0.016282 -0.013214,0.023514 -0.02901,0.042751 -0.035098,0.042751 -0.00609,0 -0.033642,-0.022231 -0.061227,-0.049404 -0.064693,-0.063724 -0.084412,-0.058933 -0.116193,0.02824 -0.012855,0.035257 -0.028016,0.064101 -0.033692,0.064101 -0.00568,0 -0.036015,-0.017059 -0.067417,-0.037912 -0.034229,-0.022728 -0.06399,-0.035265 -0.074312,-0.031303 -0.016665,0.00638 -0.020652,0.018108 -0.035476,0.1042189 -0.00382,0.022201 -0.010905,0.042816 -0.015743,0.045804 -0.00483,0.00298 -0.036128,-0.00664 -0.069539,-0.021433 -0.084827,-0.037518 -0.099739,-0.02792 -0.1038944,0.066865 l -0.00318,0.072336 -0.042932,-0.00456 c -0.023613,-0.00252 -0.059836,-0.00491 -0.080499,-0.00536 -0.036949,-7.784e-4 -0.037551,-8.65e-5 -0.036668,0.042139 4.864e-4,0.023614 0.00291,0.059841 0.00537,0.080503 l 0.00446,0.037569 -0.072332,0.00317 c -0.094778,0.00415 -0.104376,0.019068 -0.066861,0.1039006 0.014777,0.033414 0.02442,0.064708 0.021432,0.069543 -0.00298,0.00483 -0.023599,0.011921 -0.0458,0.015743 -0.086106,0.014826 -0.097817,0.018813 -0.1042131,0.035478 -0.00397,0.010348 0.00883,0.040461 0.032072,0.07547 0.02127,0.032041 0.03653,0.063847 0.03391,0.070682 -0.00263,0.00682 -0.031862,0.021632 -0.064976,0.032888 -0.082828,0.028151 -0.087198,0.048549 -0.024127,0.1125896 0.027171,0.027588 0.049394,0.054824 0.049383,0.060522 -1.05e-5,0.0057 -0.022953,0.024648 -0.050983,0.042105 -0.086368,0.053788 -0.087274,0.067326 -0.00803,0.1199439 0.032467,0.021558 0.059032,0.045532 0.059032,0.053272 0,0.00773 -0.019229,0.029527 -0.042726,0.048413 -0.046446,0.037326 -0.061819,0.067601 -0.044765,0.088154 0.00598,0.00721 0.037778,0.022257 0.070652,0.033431 0.032875,0.011173 0.05977,0.025636 0.05977,0.032135 0,0.0065 -0.017056,0.037146 -0.037905,0.068103 -0.04938,0.073331 -0.040759,0.094399 0.042909,0.1048536 0.080516,0.010051 0.086963,0.02122 0.053934,0.093367 -0.037933,0.082865 -0.030765,0.094053 0.060272,0.094053 0.04069,0 0.073985,0.00252 0.073985,0.0056 0,0.016634 -0.058828,0.091007 -0.071982,0.091007 -0.00851,0 -0.039743,-0.026566 -0.069416,-0.059036 -0.035978,-0.039375 -0.062309,-0.059036 -0.079066,-0.059036 -0.029835,0 -0.034058,0.00575 -0.070767,0.096484 -0.015553,0.038439 -0.035515,0.071342 -0.044361,0.07312 -0.00885,0.00177 -0.044014,-0.016337 -0.0781503,-0.040252 -0.0982196,-0.068796 -0.12413335,-0.058892 -0.13900694,0.053134 -0.00431,0.032469 -0.0122828,0.067487 -0.0177126,0.07782 -0.0176663,0.033602 -0.0385355,0.021242 -0.0453083,-0.026834 z"
       id="path4971" />
    <path
       style="display:inline;opacity:0;fill:#ffdf8a;fill-opacity:1;stroke:#ffe6ab;stroke-width:0.934421;stroke-miterlimit:4;stroke-dasharray:none;stroke-opacity:1"
       d="M 0.79589357,6.5233527 C 0.75666217,6.2448809 0.75001357,5.7060342 0.7821536,5.4097274 0.89371101,4.3812297 1.2684014,3.4879672 1.925764,2.6833578 2.0487848,2.5327807 2.3527435,2.2238479 2.5104133,2.0891409 3.2945263,1.4192249 4.2007872,1.0227483 5.2380225,0.89584979 c 0.1327999,-0.0162461 0.6391901,-0.0353426 0.6278866,-0.0236761 -0.00295,0.003043 -0.047822,0.0230369 -0.099711,0.0444215 C 5.3052981,1.106552 4.7896559,1.4696228 4.4322683,1.855833 4.3236877,1.9731705 4.2993471,2.0195493 4.2993471,2.1091036 c 0,0.1049618 0.049177,0.184918 0.1432546,0.232916 0.03395,0.01732 0.057735,0.020672 0.1235713,0.01741 0.076535,-0.0038 0.087365,-0.00758 0.1768063,-0.061846 C 4.9351901,2.1809686 5.2940081,2.0410454 5.5717432,1.974402 5.9906633,1.8738816 6.4200179,1.8538575 6.7299238,1.920389 7.0950118,1.9987666 7.4369768,2.1903699 7.7173696,2.4736545 8.1019358,2.862188 8.2841117,3.3704711 8.2264442,3.8940104 8.1887979,4.2357817 8.0392458,4.7364335 7.8811341,5.0499951 7.7195576,5.3704282 7.4771927,5.6396759 7.2663854,5.7329318 c -0.077042,0.03408 -0.4280505,0.09202 -0.7120429,0.117534 -0.168914,0.015177 -0.4471231,0.00789 -0.5167045,-0.013532 l -0.048299,-0.01487 -0.0076,-0.075773 C 5.9580614,5.5104362 5.7984663,5.3395972 5.5348363,5.2679118 5.4099602,5.2339552 5.1560239,5.2345775 5.0233598,5.26915 4.8906432,5.30375 4.8257776,5.334502 4.7831878,5.3830121 c -0.061716,0.070294 -0.066832,0.093909 -0.066544,0.3071876 1.73e-4,0.1284587 -0.00339,0.1904583 -0.010699,0.1859434 -0.0064,-0.00396 -0.00991,-0.044664 -0.00845,-0.097875 0.00344,-0.1248867 -0.012034,-0.1340213 -0.1336449,-0.078876 -0.038897,0.017639 -0.077585,0.029432 -0.085978,0.026213 -0.00954,-0.00366 -0.020197,-0.036734 -0.028463,-0.088419 -0.00725,-0.045411 -0.018132,-0.088602 -0.024152,-0.095982 -0.019762,-0.024222 -0.056762,-0.014143 -0.1253346,0.034145 -0.037148,0.02616 -0.074069,0.045059 -0.082043,0.041998 -0.00798,-0.00306 -0.028559,-0.042577 -0.045741,-0.087814 -0.028204,-0.074262 -0.034248,-0.082554 -0.062265,-0.085376 -0.025389,-0.00256 -0.041688,0.00768 -0.089693,0.056351 -0.032264,0.032714 -0.066228,0.05948 -0.075471,0.05948 -0.00925,0 -0.035973,-0.031428 -0.059399,-0.069841 -0.042926,-0.070386 -0.064472,-0.086905 -0.098943,-0.075859 -0.01033,0.00331 -0.037951,0.037447 -0.061375,0.075859 -0.023427,0.038412 -0.050155,0.069841 -0.059399,0.069841 -0.00925,0 -0.043039,-0.026565 -0.075106,-0.059036 -0.085058,-0.086131 -0.1172668,-0.077941 -0.1563608,0.039768 -0.00941,0.028307 -0.020415,0.051469 -0.024473,0.051469 -0.012607,0 -0.087494,-0.05396 -0.087494,-0.063044 0,-0.00472 0.022005,-0.029223 0.048894,-0.05443 0.063997,-0.059987 0.061527,-0.084194 -0.011329,-0.1109791 -0.083919,-0.030851 -0.08693,-0.037798 -0.043103,-0.099446 0.059411,-0.083567 0.050601,-0.1002762 -0.061544,-0.1167461 -0.060071,-0.00882 -0.063789,-0.022173 -0.027163,-0.09756 0.033437,-0.068827 0.021291,-0.084748 -0.067867,-0.088969 -0.037757,-0.00177 -0.072107,-0.00669 -0.076335,-0.010906 -0.00423,-0.00422 -2.676e-4,-0.036056 0.0088,-0.070761 0.014873,-0.056963 0.014851,-0.064732 -2.348e-4,-0.079819 -0.01452,-0.014522 -0.02522,-0.014959 -0.081498,-0.00333 -0.035631,0.00735 -0.069496,0.010465 -0.075259,0.00691 -0.00576,-0.00357 -0.010477,-0.039484 -0.010477,-0.079829 0,-0.090341 -0.011317,-0.097519 -0.094047,-0.059642 -0.072145,0.03303 -0.083304,0.026582 -0.093363,-0.053938 -0.010255,-0.082101 -0.029144,-0.089838 -0.1035611,-0.042422 -0.03182,0.020275 -0.06311,0.03699 -0.069527,0.037139 -0.00642,1.483e-4 -0.020857,-0.026736 -0.032078,-0.059754 -0.031512,-0.092719 -0.062448,-0.099109 -0.1218568,-0.025178 -0.018684,0.023248 -0.040838,0.042273 -0.049232,0.042273 -0.0084,0 -0.032257,-0.026565 -0.053024,-0.059036 -0.051081,-0.079856 -0.072845,-0.077027 -0.1252863,0.016282 -0.013214,0.023514 -0.02901,0.042751 -0.035098,0.042751 -0.00609,0 -0.033642,-0.022231 -0.061227,-0.049404 -0.064693,-0.063724 -0.084412,-0.058933 -0.116193,0.02824 -0.012855,0.035257 -0.028016,0.064101 -0.033692,0.064101 -0.00568,0 -0.036015,-0.017059 -0.067417,-0.037912 -0.034229,-0.022728 -0.06399,-0.035265 -0.074312,-0.031303 -0.016665,0.00638 -0.020652,0.018108 -0.035476,0.1042189 -0.00382,0.022201 -0.010905,0.042816 -0.015743,0.045804 -0.00483,0.00298 -0.036128,-0.00664 -0.069539,-0.021433 -0.084827,-0.037518 -0.099739,-0.02792 -0.1038944,0.066865 l -0.00318,0.072336 -0.042932,-0.00456 c -0.023613,-0.00252 -0.059836,-0.00491 -0.080499,-0.00536 -0.036949,-7.784e-4 -0.037551,-8.65e-5 -0.036668,0.042139 4.864e-4,0.023614 0.00291,0.059841 0.00537,0.080503 l 0.00446,0.037569 -0.072332,0.00317 c -0.094778,0.00415 -0.104376,0.019068 -0.066861,0.1039006 0.014777,0.033414 0.02442,0.064708 0.021432,0.069543 -0.00298,0.00483 -0.023599,0.011921 -0.0458,0.015743 -0.086106,0.014826 -0.097817,0.018813 -0.1042131,0.035478 -0.00397,0.010348 0.00883,0.040461 0.032072,0.07547 0.02127,0.032041 0.03653,0.063847 0.03391,0.070682 -0.00263,0.00682 -0.031862,0.021632 -0.064976,0.032888 -0.082828,0.028151 -0.087198,0.048549 -0.024127,0.1125896 0.027171,0.027588 0.049394,0.054824 0.049383,0.060522 -1.05e-5,0.0057 -0.022953,0.024648 -0.050983,0.042105 -0.086368,0.053788 -0.087274,0.067326 -0.00803,0.1199439 0.032467,0.021558 0.059032,0.045532 0.059032,0.053272 0,0.00773 -0.019229,0.029527 -0.042726,0.048413 -0.046446,0.037326 -0.061819,0.067601 -0.044765,0.088154 0.00598,0.00721 0.037778,0.022257 0.070652,0.033431 0.032875,0.011173 0.05977,0.025636 0.05977,0.032135 0,0.0065 -0.017056,0.037146 -0.037905,0.068103 -0.04938,0.073331 -0.040759,0.094399 0.042909,0.1048536 0.080516,0.010051 0.086963,0.02122 0.053934,0.093367 -0.037933,0.082865 -0.030765,0.094053 0.060272,0.094053 0.04069,0 0.073985,0.00252 0.073985,0.0056 0,0.016634 -0.058828,0.091007 -0.071982,0.091007 -0.00851,0 -0.039743,-0.026566 -0.069416,-0.059036 -0.035978,-0.039375 -0.062309,-0.059036 -0.079066,-0.059036 -0.029835,0 -0.034058,0.00575 -0.070767,0.096484 -0.015553,0.038439 -0.035515,0.071342 -0.044361,0.07312 -0.00885,0.00177 -0.044014,-0.016337 -0.0781503,-0.040252 -0.0982196,-0.068796 -0.12413335,-0.058892 -0.13900694,0.053134 -0.00431,0.032469 -0.0122828,0.067487 -0.0177126,0.07782 -0.0176663,0.033602 -0.0385355,0.021242 -0.0453083,-0.026834 z"
       id="path8479" />
    <path
       style="display:inline;opacity:0;fill:#ffff00;stroke-width:0.934421;stroke-miterlimit:4;stroke-dasharray:none"
       d="m 1.7162549,8.7807289 c -0.00589,-0.00589 -0.0053,-0.024841 0.00134,-0.042103 0.00758,-0.01975 -0.00435,-0.035673 -0.032192,-0.042952 -0.029369,-0.00768 -0.039902,-0.022864 -0.03134,-0.045175 0.00851,-0.022173 0.00435,-0.028327 -0.01222,-0.018086 -0.01507,0.00933 -0.025116,0.00214 -0.025116,-0.017947 0,-0.018409 -0.012076,-0.033616 -0.026833,-0.033797 -0.017912,-2.676e-4 -0.016186,-0.00706 0.00519,-0.020574 0.0255,-0.016125 0.026593,-0.02567 0.00537,-0.046899 -0.021228,-0.021229 -0.026721,-0.020318 -0.026982,0.00447 -6.082e-4,0.056828 -0.041875,-0.027402 -0.042605,-0.086943 -4.865e-4,-0.04258 -0.00497,-0.047016 -0.021466,-0.021467 -0.017382,0.026897 -0.021421,0.025128 -0.024538,-0.010735 -0.00205,-0.023614 -0.00226,-0.060165 -4.378e-4,-0.081225 0.0018,-0.021062 -0.011157,-0.043829 -0.028798,-0.050599 -0.017643,-0.00677 -0.032075,-0.035425 -0.032075,-0.06368 0,-0.028255 -0.00799,-0.051372 -0.017749,-0.051372 -0.00977,0 -0.013437,-0.029364 -0.00817,-0.065255 0.00526,-0.035891 0.00119,-0.06282 -0.00909,-0.059842 -0.010266,0.00298 -0.038798,-0.00577 -0.063411,-0.01947 -0.034319,-0.019083 -0.042507,-0.04016 -0.035129,-0.090431 0.00733,-0.049977 0.00142,-0.065547 -0.025016,-0.065547 -0.02538,0 -0.034637,-0.020414 -0.034637,-0.076404 0,-0.042021 -0.00866,-0.071056 -0.019218,-0.064525 -0.017921,0.011074 -0.049234,-0.03553 -0.056762,-0.084479 -0.00183,-0.011806 -0.010541,-0.040788 -0.019385,-0.064403 -0.00885,-0.023614 -0.021522,-0.057425 -0.028166,-0.075136 -0.00664,-0.017711 -0.0091,-0.041862 -0.00545,-0.053668 0.016668,-0.054016 0.015557,-0.1407754 -0.00194,-0.1515915 -0.010634,-0.00657 -0.019331,1.238e-4 -0.019331,0.01489 0,0.014763 -0.013608,0.00823 -0.030246,-0.014529 -0.020987,-0.028701 -0.023991,-0.053054 -0.00981,-0.079541 0.023378,-0.043687 0.00165,-0.1931811 -0.025613,-0.1763216 -0.0293451,0.018138 -0.0591799,-0.06158 -0.0404675,-0.1081265 0.009495,-0.023617 0.0179409,-0.073991 0.0187686,-0.1119489 0.001049,-0.048186 0.015779,-0.076649 0.0487813,-0.094316 0.035218,-0.01885 0.049359,-0.019043 0.055455,-7.544e-4 0.00449,0.013501 0.025513,0.024546 0.046698,0.024546 0.021181,0 0.050541,0.01449 0.065238,0.032202 0.014698,0.017712 0.052105,0.033164 0.083127,0.034341 l 0.056404,0.00214 -0.053667,0.017188 c -0.029516,0.00947 -0.0409,0.018152 -0.025299,0.019326 0.0156,0.00117 0.042856,0.016632 0.060564,0.034341 0.037334,0.037336 0.136464,0.043464 0.136464,0.00844 0,-0.013072 0.014233,-0.018302 0.031631,-0.011624 0.017398,0.00666 0.039776,-0.00242 0.04973,-0.020201 0.014349,-0.025638 0.026172,-0.017351 0.057046,0.039984 0.030989,0.057544 0.033985,0.081595 0.014666,0.1176908 -0.013353,0.024952 -0.02555,0.082228 -0.027104,0.1272817 l -0.00282,0.081914 -0.015816,-0.075136 c -0.012463,-0.059206 -0.016345,-0.040999 -0.01831,0.08587 -0.00142,0.089598 0.00523,0.1488348 0.014918,0.1335623 0.012589,-0.019838 0.024472,-0.011954 0.042877,0.028443 0.028066,0.061599 0.01739,0.095605 -0.030016,0.095605 -0.017968,0 -0.030646,0.020243 -0.030251,0.048301 6.812e-4,0.047093 0.00149,0.04726 0.032199,0.00663 0.030581,-0.040436 0.031517,-0.04017 0.031517,0.00895 0,0.027838 0.00597,0.044637 0.01329,0.037326 0.0073,-0.0073 0.028194,0.0016 0.046414,0.019836 0.025646,0.025647 0.027084,0.036861 0.00636,0.049665 -0.019542,0.012079 -0.013078,0.02747 0.02397,0.057087 0.029714,0.023753 0.047394,0.057165 0.042678,0.08066 -0.00502,0.024979 8.268e-4,0.034622 0.015479,0.025567 0.013297,-0.0082 0.023529,2.921e-4 0.023529,0.0196 0,0.018778 0.014489,0.039702 0.032199,0.046501 0.01771,0.0068 0.032201,0.025475 0.032201,0.041505 0,0.033273 0.073289,0.079014 0.093773,0.058529 0.00744,-0.00745 0.014765,-0.00229 0.016242,0.01149 0.00149,0.013775 0.0039,0.037121 0.00537,0.051881 0.00149,0.014758 0.017173,0.026834 0.034883,0.026834 0.017711,0 0.03909,0.00965 0.047515,0.021467 0.00843,0.011806 0.022915,0.022768 0.0322,0.024356 0.061992,0.010602 0.1110603,0.037329 0.1003521,0.054657 -0.00695,0.011254 3.648e-4,0.018293 0.016341,0.01564 0.015943,-0.00265 0.043476,9.489e-4 0.061186,0.00803 0.017709,0.00707 0.051518,0.017136 0.075131,0.022363 0.025193,0.00558 0.013021,0.010528 -0.029462,0.011991 -0.058814,0.00205 -0.067804,0.00801 -0.047928,0.031971 0.028555,0.034407 0.00811,0.1048546 -0.027026,0.09314 -0.013197,-0.00439 -0.036936,0.00495 -0.052751,0.020757 -0.015815,0.015816 -0.037353,0.023442 -0.047861,0.01695 -0.010498,-0.0065 -0.025496,0.013655 -0.033308,0.04478 -0.00997,0.039734 -0.019308,0.048322 -0.031353,0.028832 -0.011938,-0.019315 -0.021727,-0.00952 -0.032199,0.032201 -0.00962,0.038364 -0.02079,0.050662 -0.030995,0.034152 -0.024916,-0.040317 -0.1069749,-0.00306 -0.1306996,0.059349 -0.015485,0.040729 -0.013735,0.06007 0.00659,0.07297 0.020429,0.012963 0.01784,0.01764 -0.0099,0.017884 -0.029007,2.675e-4 -0.037565,-0.017604 -0.037565,-0.078386 0,-0.120571 -0.026426,-0.067112 -0.029497,0.05967 -0.0021,0.086855 -0.010707,0.1127591 -0.038804,0.1168707 -0.019857,0.00291 -0.040925,4.378e-4 -0.046819,-0.00543 z m 0.050724,-0.3190665 c 0,-0.018407 -0.00965,-0.027498 -0.02147,-0.020201 -0.011807,0.00729 -0.021466,0.022356 -0.021466,0.03347 0,0.011112 0.00965,0.0202 0.021466,0.0202 0.011807,0 0.02147,-0.015061 0.02147,-0.033469 z M 1.5236005,8.1033489 c -0.00595,-0.01476 -0.010826,-0.00267 -0.010826,0.026834 0,0.029517 0.00487,0.041592 0.010826,0.026834 0.00595,-0.014758 0.00595,-0.038909 0,-0.053668 z M 1.1586742,7.5022596 c -0.00595,-0.01476 -0.010827,-0.00267 -0.010827,0.026834 0,0.029517 0.00487,0.041594 0.010827,0.026834 0.00597,-0.01476 0.00597,-0.038909 0,-0.053668 z m 0.031708,-0.1451549 c -0.00755,-0.00604 -0.020968,-0.019724 -0.029823,-0.030414 -0.00886,-0.010686 -0.016099,0.00671 -0.016099,0.038665 0,0.048551 0.0049,0.053545 0.029823,0.030413 0.016404,-0.015224 0.023648,-0.032626 0.016099,-0.038664 z M 1.5100523,7.2446501 c -0.015855,-0.039444 -0.019415,-0.030587 -0.019415,0.048302 0,0.078888 0.00357,0.087745 0.019415,0.048302 0.011575,-0.028798 0.011575,-0.067806 0,-0.096604 z M 1.1015258,7.2165491 c 0,-0.018409 -0.00965,-0.027496 -0.021469,-0.020201 -0.011807,0.00729 -0.021466,0.02236 -0.021466,0.033468 0,0.011112 0.00965,0.020199 0.021466,0.020199 0.011807,0 0.021469,-0.015062 0.021469,-0.033468 z M 1.2732554,6.8850703 c 0,-0.011806 -0.010234,-0.021467 -0.022734,-0.021467 -0.012504,0 -0.016763,0.00965 -0.00946,0.021467 0.00729,0.011806 0.017529,0.021467 0.022734,0.021467 0.0052,0 0.00946,-0.00965 0.00946,-0.021467 z"
       id="path2093-0-2-8" />
    <path
       style="display:inline;fill:none;stroke:#ffffff;stroke-width:1.13317;stroke-linecap:round;stroke-linejoin:miter;stroke-miterlimit:4;stroke-dasharray:none;stroke-opacity:1"
       d="M 7.57326,1.0582998 C 5.4499889,0.75069461 4.4877566,2.1292061 4.5747324,2.017253 c 0,0 0.812192,-0.5274644 1.9155438,-0.4795181 0.7829797,0.034023 1.6382925,0.5957565 1.9248763,1.4571994 C 8.5181696,3.3045954 8.5114035,3.777308 8.4739605,4.029511 8.2608673,5.464811 7.8063463,5.6848695 7.2403307,5.9299052 7.0037827,6.03231 5.7120237,6.2188944 5.7478996,5.7481222 5.7763097,5.3753208 4.4706236,5.2266036 4.2199,5.3380178"
       id="path8940-6-9-4"
       sodipodi:nodetypes="ccsssssc" />
    <path
       style="display:inline;fill:none;stroke:#ffffff;stroke-width:1.03404;stroke-linecap:butt;stroke-linejoin:miter;stroke-miterlimit:4;stroke-dasharray:none;stroke-opacity:1"
       d="M 5.7324693,5.6554145 C 5.8244468,6.2985383 5.2449856,10.487055 5.1604346,10.859471"
       id="path9629-56-0-8"
       sodipodi:nodetypes="cc" />
    <path
       style="display:inline;fill:none;fill-opacity:1;stroke:#ffffff;stroke-width:1.03404;stroke-linecap:round;stroke-linejoin:miter;stroke-miterlimit:4;stroke-dasharray:none;stroke-opacity:1"
       d="m 4.1301013,5.3340625 c -0.00909,0.1156941 0.00888,0.3753464 -0.01522,0.7093133 C 4.0117656,7.4724024 3.6192944,10.297821 3.550756,10.599707"
       id="path9629-6-9-8-0"
       sodipodi:nodetypes="csc" />
    <path
       style="display:inline;fill:none;fill-opacity:1;stroke:#ffffff;stroke-width:1.03404;stroke-linecap:butt;stroke-linejoin:miter;stroke-miterlimit:4;stroke-dasharray:none;stroke-opacity:1"
       d="m 7.6381197,5.5865714 c 0.9084839,0.4912791 1.6262599,2.7389578 1.683723,4.2170588"
       id="path9629-5-37-8-4"
       sodipodi:nodetypes="cc" />
    <path
       style="display:inline;fill:none;fill-opacity:1;stroke:#ffffff;stroke-width:1.03404;stroke-linecap:butt;stroke-linejoin:miter;stroke-miterlimit:4;stroke-dasharray:none;stroke-opacity:1"
       d="m 8.6724105,3.7348196 c 0.9614474,-0.025605 1.5386805,0.069849 2.2317085,0.5792621"
       id="path9629-5-3-4-5-2"
       sodipodi:nodetypes="cc" />
    <circle
       style="display:inline;fill:none;stroke:#ffffff;stroke-width:1.03404;stroke-miterlimit:4;stroke-dasharray:none;stroke-opacity:1"
       id="path6366-5-3-0"
       cy="5.8208332"
       cx="5.8208337"
       r="5.3038135" />
  </g>
</svg>
