<?xml version="1.0" encoding="UTF-8" standalone="no"?>
<!-- Created with Inkscape (http://www.inkscape.org/) -->

<svg
   width="44"
   height="44"
   viewBox="0 0 11.641666 11.641667"
   version="1.1"
   id="svg856"
   inkscape:version="1.1.2 (0a00cf5339, 2022-02-04)"
   sodipodi:docname="WhiteIcon44x44.svg"
   xmlns:inkscape="http://www.inkscape.org/namespaces/inkscape"
   xmlns:sodipodi="http://sodipodi.sourceforge.net/DTD/sodipodi-0.dtd"
   xmlns="http://www.w3.org/2000/svg"
   xmlns:svg="http://www.w3.org/2000/svg">
  <sodipodi:namedview
     id="namedview858"
     pagecolor="#ffffff"
     bordercolor="#666666"
     borderopacity="1.0"
     inkscape:pageshadow="2"
     inkscape:pageopacity="0.0"
     inkscape:pagecheckerboard="0"
     inkscape:document-units="mm"
     showgrid="false"
     units="px"
     inkscape:zoom="11.431425"
     inkscape:cx="11.153465"
     inkscape:cy="20.994758"
     inkscape:window-width="1920"
     inkscape:window-height="1011"
     inkscape:window-x="0"
     inkscape:window-y="0"
     inkscape:window-maximized="1"
     inkscape:current-layer="layer1" />
  <defs
     id="defs853" />
  <g
     inkscape:label="Layer 1"
     inkscape:groupmode="layer"
     id="layer1">
    <path
       style="display:inline;opacity:0;fill:#ffdf8a;fill-opacity:1;stroke:#ffe6ab;stroke-width:0.695099;stroke-miterlimit:4;stroke-dasharray:none;stroke-opacity:1"
       d="M 0.63516506,6.5458006 C 0.59467881,6.2584307 0.58781753,5.7023664 0.62098561,5.3965919 0.7361113,4.335231 1.1227866,3.4134266 1.8011758,2.5831076 1.9281316,2.4277193 2.2418127,2.1089152 2.4045258,1.969904 3.2137195,1.2785825 4.1489681,0.86943741 5.2193806,0.73848421 5.3564284,0.72171881 5.8790161,0.70201231 5.8673508,0.71405161 5.8643001,0.71719281 5.8179998,0.73782451 5.7644499,0.75989241 5.2888081,0.95591891 4.7566723,1.3305907 4.3878536,1.7291413 4.2757997,1.850228 4.2506807,1.8980887 4.2506807,1.9905045 c 0,0.1083163 0.050749,0.1908268 0.1478365,0.2403582 0.035037,0.017873 0.059581,0.021332 0.1275241,0.017966 0.078983,-0.00392 0.090158,-0.00782 0.1824617,-0.06382 C 4.9068617,2.0646661 5.277157,1.920272 5.5637758,1.8514992 5.9960955,1.7477666 6.4391835,1.7271031 6.7590022,1.79576 7.1357678,1.876642 7.488671,2.0743675 7.7780326,2.3667038 8.1748996,2.7676521 8.3629025,3.292176 8.3033903,3.8324438 8.26454,4.1851354 8.1102044,4.7017847 7.9470351,5.0253653 7.7802906,5.356037 7.5301734,5.6338878 7.312623,5.7301235 c -0.079507,0.035169 -0.4417421,0.09496 -0.7348183,0.1212896 -0.174317,0.015661 -0.461425,0.00814 -0.5332319,-0.013964 l -0.049845,-0.015344 -0.00784,-0.078194 C 5.9624508,5.5005186 5.797751,5.3242208 5.5256884,5.2502448 c -0.1288704,-0.035041 -0.3909292,-0.0344 -0.5278367,0.00128 -0.1369616,0.035705 -0.2039021,0.06744 -0.2478543,0.1175003 -0.06369,0.072539 -0.068968,0.09691 -0.068672,0.3170032 1.786e-4,0.1325631 -0.0035,0.1965438 -0.011039,0.1918849 -0.0066,-0.00409 -0.010231,-0.046091 -0.00872,-0.1010032 0.00355,-0.1288771 -0.012419,-0.1383036 -0.1379197,-0.081397 -0.04014,0.018202 -0.080067,0.030373 -0.088728,0.027051 -0.00985,-0.00379 -0.020844,-0.037908 -0.029373,-0.091245 -0.00749,-0.046862 -0.018711,-0.091434 -0.024923,-0.099048 -0.020395,-0.024996 -0.058579,-0.014593 -0.1293436,0.035236 -0.038337,0.026996 -0.076437,0.046498 -0.084668,0.04334 -0.00823,-0.00317 -0.029473,-0.043938 -0.047203,-0.09062 -0.029108,-0.076634 -0.035345,-0.08519 -0.064256,-0.088103 -0.026201,-0.00264 -0.043023,0.00792 -0.092564,0.058151 -0.033297,0.033758 -0.068346,0.06138 -0.077885,0.06138 -0.00953,0 -0.037123,-0.032433 -0.0613,-0.072073 -0.0443,-0.072634 -0.066534,-0.089682 -0.1021072,-0.078283 -0.010661,0.00342 -0.039164,0.038644 -0.063339,0.078283 -0.024178,0.03964 -0.05176,0.072073 -0.0613,0.072073 -0.00953,0 -0.044417,-0.027414 -0.077506,-0.060922 -0.087779,-0.088884 -0.1210176,-0.080431 -0.161362,0.041038 -0.00971,0.02921 -0.021068,0.053113 -0.025255,0.053113 -0.013009,0 -0.090292,-0.055684 -0.090292,-0.065058 0,-0.00488 0.022708,-0.030156 0.050458,-0.056171 0.066045,-0.061904 0.063495,-0.086885 -0.011692,-0.1145252 -0.086603,-0.031837 -0.08971,-0.039006 -0.044481,-0.1026234 0.061312,-0.086237 0.05222,-0.1034796 -0.063513,-0.1204765 -0.061993,-0.0091 -0.065831,-0.022882 -0.028032,-0.1006776 0.034506,-0.071025 0.021972,-0.087456 -0.070037,-0.091812 -0.038965,-0.00184 -0.074415,-0.0069 -0.078777,-0.011254 -0.00437,-0.00436 -2.761e-4,-0.037206 0.00907,-0.073022 0.01535,-0.058784 0.015326,-0.0668 -2.424e-4,-0.08237 -0.014985,-0.014985 -0.026026,-0.015437 -0.084105,-0.00344 -0.03677,0.00758 -0.07172,0.010803 -0.077664,0.00713 -0.00594,-0.00368 -0.010809,-0.040745 -0.010809,-0.08238 0,-0.093228 -0.011679,-0.1006346 -0.097057,-0.061548 -0.074454,0.034085 -0.085968,0.027432 -0.09635,-0.055661 C 2.6284275,4.4862697 2.6089325,4.4782867 2.532137,4.5272177 2.4993,4.5481407 2.46701,4.5653887 2.460386,4.5655427 2.453766,4.5656958 2.438862,4.5379517 2.427284,4.5038797 2.394763,4.4081997 2.362839,4.4016037 2.3015295,4.4778957 c -0.019281,0.023991 -0.042144,0.043624 -0.050806,0.043624 -0.00866,0 -0.033288,-0.027414 -0.054721,-0.060922 -0.052714,-0.082406 -0.075176,-0.079489 -0.1292936,0.016803 -0.013638,0.024264 -0.029937,0.044119 -0.036222,0.044119 -0.00627,0 -0.034719,-0.022942 -0.063185,-0.050983 -0.066764,-0.065761 -0.087111,-0.060816 -0.1199095,0.029144 -0.013266,0.036382 -0.028911,0.066148 -0.03477,0.066148 -0.00587,0 -0.037166,-0.017604 -0.069573,-0.039123 -0.035324,-0.023454 -0.066037,-0.036391 -0.076689,-0.032304 -0.017197,0.00658 -0.021311,0.018687 -0.036611,0.107549 -0.00394,0.022912 -0.011254,0.044185 -0.016246,0.047267 -0.00498,0.00308 -0.037284,-0.00686 -0.071762,-0.022119 -0.08754,-0.038716 -0.1029303,-0.028811 -0.1072175,0.069002 l -0.00329,0.074647 -0.044307,-0.00471 c -0.024368,-0.0026 -0.06175,-0.00507 -0.083073,-0.00554 -0.038131,-8.034e-4 -0.038753,-8.93e-5 -0.03784,0.043485 5.022e-4,0.024367 0.00301,0.061753 0.00554,0.083076 l 0.00461,0.03877 -0.074646,0.00328 c -0.09781,0.00429 -0.1077137,0.019677 -0.068999,0.1072207 0.015249,0.034482 0.025202,0.066776 0.022118,0.071765 -0.00308,0.00498 -0.024354,0.012302 -0.047266,0.016247 -0.088861,0.015299 -0.100947,0.019413 -0.10754611,0.036613 -0.004101,0.010677 0.009102,0.041754 0.0330964,0.077883 0.021952,0.033064 0.037699,0.065888 0.034993,0.072939 -0.00271,0.00704 -0.032881,0.022325 -0.067054,0.03394 -0.0854764,0.029051 -0.0899885,0.050101 -0.0248979,0.1161872 0.0280397,0.028468 0.0509735,0.056575 0.0509625,0.062457 -1.09e-5,0.00589 -0.023687,0.025436 -0.0526128,0.043449 -0.0891306,0.055505 -0.0900659,0.069478 -0.008282,0.1237765 0.033506,0.022247 0.06092,0.046986 0.06092,0.054974 0,0.00797 -0.019844,0.030471 -0.044093,0.04996 -0.047931,0.038519 -0.0637977,0.069761 -0.0461952,0.09097 0.006166,0.00744 0.0389862,0.022968 0.0729112,0.034498 0.033928,0.01153 0.061682,0.026455 0.061682,0.033161 0,0.00669 -0.017601,0.038331 -0.039116,0.070278 -0.0509595,0.075675 -0.0420634,0.097417 0.044282,0.1082041 0.083092,0.01038 0.089744,0.021898 0.055658,0.09635 -0.039147,0.085512 -0.031748,0.097059 0.062199,0.097059 0.041992,0 0.07635,0.0026 0.07635,0.00578 0,0.017165 -0.06071,0.093916 -0.074284,0.093916 -0.00878,0 -0.041015,-0.027414 -0.071635,-0.060922 -0.037128,-0.040633 -0.064302,-0.060922 -0.081596,-0.060922 -0.030788,0 -0.035149,0.00595 -0.0730295,0.099567 -0.0160505,0.039667 -0.0366508,0.073621 -0.0457802,0.075455 -0.009125,0.00184 -0.0454217,-0.016858 -0.08065,-0.041537 -0.10137081,-0.071007 -0.12811345,-0.060787 -0.14346281,0.054818 -0.004449,0.033505 -0.0126756,0.069646 -0.0182791,0.080307 -0.0182315,0.034676 -0.0397679,0.021921 -0.0467574,-0.027691 z"
       id="path4932" />
    <path
       style="display:inline;opacity:0;fill:#ffdf8a;fill-opacity:1;stroke:#ffe6ab;stroke-width:0.695099;stroke-miterlimit:4;stroke-dasharray:none;stroke-opacity:1"
       d="M 0.63516506,6.5458006 C 0.59467881,6.2584307 0.58781753,5.7023664 0.62098561,5.3965919 0.7361113,4.335231 1.1227866,3.4134266 1.8011758,2.5831076 1.9281316,2.4277193 2.2418127,2.1089152 2.4045258,1.969904 3.2137195,1.2785825 4.1489681,0.86943741 5.2193806,0.73848421 5.3564284,0.72171881 5.8790161,0.70201231 5.8673508,0.71405161 5.8643001,0.71719281 5.8179998,0.73782451 5.7644499,0.75989241 5.2888081,0.95591891 4.7566723,1.3305907 4.3878536,1.7291413 4.2757997,1.850228 4.2506807,1.8980887 4.2506807,1.9905045 c 0,0.1083163 0.050749,0.1908268 0.1478365,0.2403582 0.035037,0.017873 0.059581,0.021332 0.1275241,0.017966 0.078983,-0.00392 0.090158,-0.00782 0.1824617,-0.06382 C 4.9068617,2.0646661 5.277157,1.920272 5.5637758,1.8514992 5.9960955,1.7477666 6.4391835,1.7271031 6.7590022,1.79576 7.1357678,1.876642 7.488671,2.0743675 7.7780326,2.3667038 8.1748996,2.7676521 8.3629025,3.292176 8.3033903,3.8324438 8.26454,4.1851354 8.1102044,4.7017847 7.9470351,5.0253653 7.7802906,5.356037 7.5301734,5.6338878 7.312623,5.7301235 c -0.079507,0.035169 -0.4417421,0.09496 -0.7348183,0.1212896 -0.174317,0.015661 -0.461425,0.00814 -0.5332319,-0.013964 l -0.049845,-0.015344 -0.00784,-0.078194 C 5.9624508,5.5005186 5.797751,5.3242208 5.5256884,5.2502448 c -0.1288704,-0.035041 -0.3909292,-0.0344 -0.5278367,0.00128 -0.1369616,0.035705 -0.2039021,0.06744 -0.2478543,0.1175003 -0.06369,0.072539 -0.068968,0.09691 -0.068672,0.3170032 1.786e-4,0.1325631 -0.0035,0.1965438 -0.011039,0.1918849 -0.0066,-0.00409 -0.010231,-0.046091 -0.00872,-0.1010032 0.00355,-0.1288771 -0.012419,-0.1383036 -0.1379197,-0.081397 -0.04014,0.018202 -0.080067,0.030373 -0.088728,0.027051 -0.00985,-0.00379 -0.020844,-0.037908 -0.029373,-0.091245 -0.00749,-0.046862 -0.018711,-0.091434 -0.024923,-0.099048 -0.020395,-0.024996 -0.058579,-0.014593 -0.1293436,0.035236 -0.038337,0.026996 -0.076437,0.046498 -0.084668,0.04334 -0.00823,-0.00317 -0.029473,-0.043938 -0.047203,-0.09062 -0.029108,-0.076634 -0.035345,-0.08519 -0.064256,-0.088103 -0.026201,-0.00264 -0.043023,0.00792 -0.092564,0.058151 -0.033297,0.033758 -0.068346,0.06138 -0.077885,0.06138 -0.00953,0 -0.037123,-0.032433 -0.0613,-0.072073 -0.0443,-0.072634 -0.066534,-0.089682 -0.1021072,-0.078283 -0.010661,0.00342 -0.039164,0.038644 -0.063339,0.078283 -0.024178,0.03964 -0.05176,0.072073 -0.0613,0.072073 -0.00953,0 -0.044417,-0.027414 -0.077506,-0.060922 -0.087779,-0.088884 -0.1210176,-0.080431 -0.161362,0.041038 -0.00971,0.02921 -0.021068,0.053113 -0.025255,0.053113 -0.013009,0 -0.090292,-0.055684 -0.090292,-0.065058 0,-0.00488 0.022708,-0.030156 0.050458,-0.056171 0.066045,-0.061904 0.063495,-0.086885 -0.011692,-0.1145252 -0.086603,-0.031837 -0.08971,-0.039006 -0.044481,-0.1026234 0.061312,-0.086237 0.05222,-0.1034796 -0.063513,-0.1204765 -0.061993,-0.0091 -0.065831,-0.022882 -0.028032,-0.1006776 0.034506,-0.071025 0.021972,-0.087456 -0.070037,-0.091812 -0.038965,-0.00184 -0.074415,-0.0069 -0.078777,-0.011254 -0.00437,-0.00436 -2.761e-4,-0.037206 0.00907,-0.073022 0.01535,-0.058784 0.015326,-0.0668 -2.424e-4,-0.08237 -0.014985,-0.014985 -0.026026,-0.015437 -0.084105,-0.00344 -0.03677,0.00758 -0.07172,0.010803 -0.077664,0.00713 -0.00594,-0.00368 -0.010809,-0.040745 -0.010809,-0.08238 0,-0.093228 -0.011679,-0.1006346 -0.097057,-0.061548 -0.074454,0.034085 -0.085968,0.027432 -0.09635,-0.055661 C 2.6284275,4.4862697 2.6089325,4.4782867 2.532137,4.5272177 2.4993,4.5481407 2.46701,4.5653887 2.460386,4.5655427 2.453766,4.5656958 2.438862,4.5379517 2.427284,4.5038797 2.394763,4.4081997 2.362839,4.4016037 2.3015295,4.4778957 c -0.019281,0.023991 -0.042144,0.043624 -0.050806,0.043624 -0.00866,0 -0.033288,-0.027414 -0.054721,-0.060922 -0.052714,-0.082406 -0.075176,-0.079489 -0.1292936,0.016803 -0.013638,0.024264 -0.029937,0.044119 -0.036222,0.044119 -0.00627,0 -0.034719,-0.022942 -0.063185,-0.050983 -0.066764,-0.065761 -0.087111,-0.060816 -0.1199095,0.029144 -0.013266,0.036382 -0.028911,0.066148 -0.03477,0.066148 -0.00587,0 -0.037166,-0.017604 -0.069573,-0.039123 -0.035324,-0.023454 -0.066037,-0.036391 -0.076689,-0.032304 -0.017197,0.00658 -0.021311,0.018687 -0.036611,0.107549 -0.00394,0.022912 -0.011254,0.044185 -0.016246,0.047267 -0.00498,0.00308 -0.037284,-0.00686 -0.071762,-0.022119 -0.08754,-0.038716 -0.1029303,-0.028811 -0.1072175,0.069002 l -0.00329,0.074647 -0.044307,-0.00471 c -0.024368,-0.0026 -0.06175,-0.00507 -0.083073,-0.00554 -0.038131,-8.034e-4 -0.038753,-8.93e-5 -0.03784,0.043485 5.022e-4,0.024367 0.00301,0.061753 0.00554,0.083076 l 0.00461,0.03877 -0.074646,0.00328 c -0.09781,0.00429 -0.1077137,0.019677 -0.068999,0.1072207 0.015249,0.034482 0.025202,0.066776 0.022118,0.071765 -0.00308,0.00498 -0.024354,0.012302 -0.047266,0.016247 -0.088861,0.015299 -0.100947,0.019413 -0.10754611,0.036613 -0.004101,0.010677 0.009102,0.041754 0.0330964,0.077883 0.021952,0.033064 0.037699,0.065888 0.034993,0.072939 -0.00271,0.00704 -0.032881,0.022325 -0.067054,0.03394 -0.0854764,0.029051 -0.0899885,0.050101 -0.0248979,0.1161872 0.0280397,0.028468 0.0509735,0.056575 0.0509625,0.062457 -1.09e-5,0.00589 -0.023687,0.025436 -0.0526128,0.043449 -0.0891306,0.055505 -0.0900659,0.069478 -0.008282,0.1237765 0.033506,0.022247 0.06092,0.046986 0.06092,0.054974 0,0.00797 -0.019844,0.030471 -0.044093,0.04996 -0.047931,0.038519 -0.0637977,0.069761 -0.0461952,0.09097 0.006166,0.00744 0.0389862,0.022968 0.0729112,0.034498 0.033928,0.01153 0.061682,0.026455 0.061682,0.033161 0,0.00669 -0.017601,0.038331 -0.039116,0.070278 -0.0509595,0.075675 -0.0420634,0.097417 0.044282,0.1082041 0.083092,0.01038 0.089744,0.021898 0.055658,0.09635 -0.039147,0.085512 -0.031748,0.097059 0.062199,0.097059 0.041992,0 0.07635,0.0026 0.07635,0.00578 0,0.017165 -0.06071,0.093916 -0.074284,0.093916 -0.00878,0 -0.041015,-0.027414 -0.071635,-0.060922 -0.037128,-0.040633 -0.064302,-0.060922 -0.081596,-0.060922 -0.030788,0 -0.035149,0.00595 -0.0730295,0.099567 -0.0160505,0.039667 -0.0366508,0.073621 -0.0457802,0.075455 -0.009125,0.00184 -0.0454217,-0.016858 -0.08065,-0.041537 -0.10137081,-0.071007 -0.12811345,-0.060787 -0.14346281,0.054818 -0.004449,0.033505 -0.0126756,0.069646 -0.0182791,0.080307 -0.0182315,0.034676 -0.0397679,0.021921 -0.0467574,-0.027691 z"
       id="path4971" />
    <path
       style="display:inline;opacity:0;fill:#ffdf8a;fill-opacity:1;stroke:#ffe6ab;stroke-width:0.695099;stroke-miterlimit:4;stroke-dasharray:none;stroke-opacity:1"
       d="M 0.63516506,6.5458006 C 0.59467881,6.2584307 0.58781753,5.7023664 0.62098561,5.3965919 0.7361113,4.335231 1.1227866,3.4134266 1.8011758,2.5831076 1.9281316,2.4277193 2.2418127,2.1089152 2.4045258,1.969904 3.2137195,1.2785825 4.1489681,0.86943741 5.2193806,0.73848421 5.3564284,0.72171881 5.8790161,0.70201231 5.8673508,0.71405161 5.8643001,0.71719281 5.8179998,0.73782451 5.7644499,0.75989241 5.2888081,0.95591891 4.7566723,1.3305907 4.3878536,1.7291413 4.2757997,1.850228 4.2506807,1.8980887 4.2506807,1.9905045 c 0,0.1083163 0.050749,0.1908268 0.1478365,0.2403582 0.035037,0.017873 0.059581,0.021332 0.1275241,0.017966 0.078983,-0.00392 0.090158,-0.00782 0.1824617,-0.06382 C 4.9068617,2.0646661 5.277157,1.920272 5.5637758,1.8514992 5.9960955,1.7477666 6.4391835,1.7271031 6.7590022,1.79576 7.1357678,1.876642 7.488671,2.0743675 7.7780326,2.3667038 8.1748996,2.7676521 8.3629025,3.292176 8.3033903,3.8324438 8.26454,4.1851354 8.1102044,4.7017847 7.9470351,5.0253653 7.7802906,5.356037 7.5301734,5.6338878 7.312623,5.7301235 c -0.079507,0.035169 -0.4417421,0.09496 -0.7348183,0.1212896 -0.174317,0.015661 -0.461425,0.00814 -0.5332319,-0.013964 l -0.049845,-0.015344 -0.00784,-0.078194 C 5.9624508,5.5005186 5.797751,5.3242208 5.5256884,5.2502448 c -0.1288704,-0.035041 -0.3909292,-0.0344 -0.5278367,0.00128 -0.1369616,0.035705 -0.2039021,0.06744 -0.2478543,0.1175003 -0.06369,0.072539 -0.068968,0.09691 -0.068672,0.3170032 1.786e-4,0.1325631 -0.0035,0.1965438 -0.011039,0.1918849 -0.0066,-0.00409 -0.010231,-0.046091 -0.00872,-0.1010032 0.00355,-0.1288771 -0.012419,-0.1383036 -0.1379197,-0.081397 -0.04014,0.018202 -0.080067,0.030373 -0.088728,0.027051 -0.00985,-0.00379 -0.020844,-0.037908 -0.029373,-0.091245 -0.00749,-0.046862 -0.018711,-0.091434 -0.024923,-0.099048 -0.020395,-0.024996 -0.058579,-0.014593 -0.1293436,0.035236 -0.038337,0.026996 -0.076437,0.046498 -0.084668,0.04334 -0.00823,-0.00317 -0.029473,-0.043938 -0.047203,-0.09062 -0.029108,-0.076634 -0.035345,-0.08519 -0.064256,-0.088103 -0.026201,-0.00264 -0.043023,0.00792 -0.092564,0.058151 -0.033297,0.033758 -0.068346,0.06138 -0.077885,0.06138 -0.00953,0 -0.037123,-0.032433 -0.0613,-0.072073 -0.0443,-0.072634 -0.066534,-0.089682 -0.1021072,-0.078283 -0.010661,0.00342 -0.039164,0.038644 -0.063339,0.078283 -0.024178,0.03964 -0.05176,0.072073 -0.0613,0.072073 -0.00953,0 -0.044417,-0.027414 -0.077506,-0.060922 -0.087779,-0.088884 -0.1210176,-0.080431 -0.161362,0.041038 -0.00971,0.02921 -0.021068,0.053113 -0.025255,0.053113 -0.013009,0 -0.090292,-0.055684 -0.090292,-0.065058 0,-0.00488 0.022708,-0.030156 0.050458,-0.056171 0.066045,-0.061904 0.063495,-0.086885 -0.011692,-0.1145252 -0.086603,-0.031837 -0.08971,-0.039006 -0.044481,-0.1026234 0.061312,-0.086237 0.05222,-0.1034796 -0.063513,-0.1204765 -0.061993,-0.0091 -0.065831,-0.022882 -0.028032,-0.1006776 0.034506,-0.071025 0.021972,-0.087456 -0.070037,-0.091812 -0.038965,-0.00184 -0.074415,-0.0069 -0.078777,-0.011254 -0.00437,-0.00436 -2.761e-4,-0.037206 0.00907,-0.073022 0.01535,-0.058784 0.015326,-0.0668 -2.424e-4,-0.08237 -0.014985,-0.014985 -0.026026,-0.015437 -0.084105,-0.00344 -0.03677,0.00758 -0.07172,0.010803 -0.077664,0.00713 -0.00594,-0.00368 -0.010809,-0.040745 -0.010809,-0.08238 0,-0.093228 -0.011679,-0.1006346 -0.097057,-0.061548 -0.074454,0.034085 -0.085968,0.027432 -0.09635,-0.055661 C 2.6284275,4.4862697 2.6089325,4.4782867 2.532137,4.5272177 2.4993,4.5481407 2.46701,4.5653887 2.460386,4.5655427 2.453766,4.5656958 2.438862,4.5379517 2.427284,4.5038797 2.394763,4.4081997 2.362839,4.4016037 2.3015295,4.4778957 c -0.019281,0.023991 -0.042144,0.043624 -0.050806,0.043624 -0.00866,0 -0.033288,-0.027414 -0.054721,-0.060922 -0.052714,-0.082406 -0.075176,-0.079489 -0.1292936,0.016803 -0.013638,0.024264 -0.029937,0.044119 -0.036222,0.044119 -0.00627,0 -0.034719,-0.022942 -0.063185,-0.050983 -0.066764,-0.065761 -0.087111,-0.060816 -0.1199095,0.029144 -0.013266,0.036382 -0.028911,0.066148 -0.03477,0.066148 -0.00587,0 -0.037166,-0.017604 -0.069573,-0.039123 -0.035324,-0.023454 -0.066037,-0.036391 -0.076689,-0.032304 -0.017197,0.00658 -0.021311,0.018687 -0.036611,0.107549 -0.00394,0.022912 -0.011254,0.044185 -0.016246,0.047267 -0.00498,0.00308 -0.037284,-0.00686 -0.071762,-0.022119 -0.08754,-0.038716 -0.1029303,-0.028811 -0.1072175,0.069002 l -0.00329,0.074647 -0.044307,-0.00471 c -0.024368,-0.0026 -0.06175,-0.00507 -0.083073,-0.00554 -0.038131,-8.034e-4 -0.038753,-8.93e-5 -0.03784,0.043485 5.022e-4,0.024367 0.00301,0.061753 0.00554,0.083076 l 0.00461,0.03877 -0.074646,0.00328 c -0.09781,0.00429 -0.1077137,0.019677 -0.068999,0.1072207 0.015249,0.034482 0.025202,0.066776 0.022118,0.071765 -0.00308,0.00498 -0.024354,0.012302 -0.047266,0.016247 -0.088861,0.015299 -0.100947,0.019413 -0.10754611,0.036613 -0.004101,0.010677 0.009102,0.041754 0.0330964,0.077883 0.021952,0.033064 0.037699,0.065888 0.034993,0.072939 -0.00271,0.00704 -0.032881,0.022325 -0.067054,0.03394 -0.0854764,0.029051 -0.0899885,0.050101 -0.0248979,0.1161872 0.0280397,0.028468 0.0509735,0.056575 0.0509625,0.062457 -1.09e-5,0.00589 -0.023687,0.025436 -0.0526128,0.043449 -0.0891306,0.055505 -0.0900659,0.069478 -0.008282,0.1237765 0.033506,0.022247 0.06092,0.046986 0.06092,0.054974 0,0.00797 -0.019844,0.030471 -0.044093,0.04996 -0.047931,0.038519 -0.0637977,0.069761 -0.0461952,0.09097 0.006166,0.00744 0.0389862,0.022968 0.0729112,0.034498 0.033928,0.01153 0.061682,0.026455 0.061682,0.033161 0,0.00669 -0.017601,0.038331 -0.039116,0.070278 -0.0509595,0.075675 -0.0420634,0.097417 0.044282,0.1082041 0.083092,0.01038 0.089744,0.021898 0.055658,0.09635 -0.039147,0.085512 -0.031748,0.097059 0.062199,0.097059 0.041992,0 0.07635,0.0026 0.07635,0.00578 0,0.017165 -0.06071,0.093916 -0.074284,0.093916 -0.00878,0 -0.041015,-0.027414 -0.071635,-0.060922 -0.037128,-0.040633 -0.064302,-0.060922 -0.081596,-0.060922 -0.030788,0 -0.035149,0.00595 -0.0730295,0.099567 -0.0160505,0.039667 -0.0366508,0.073621 -0.0457802,0.075455 -0.009125,0.00184 -0.0454217,-0.016858 -0.08065,-0.041537 -0.10137081,-0.071007 -0.12811345,-0.060787 -0.14346281,0.054818 -0.004449,0.033505 -0.0126756,0.069646 -0.0182791,0.080307 -0.0182315,0.034676 -0.0397679,0.021921 -0.0467574,-0.027691 z"
       id="path8479" />
    <path
       style="display:inline;opacity:0;fill:#ffff00;stroke-width:0.695099;stroke-miterlimit:4;stroke-dasharray:none"
       d="m 1.5849652,8.8753062 c -0.00608,-0.0061 -0.00547,-0.02564 0.00138,-0.04345 0.00782,-0.02038 -0.0045,-0.03681 -0.033222,-0.04433 -0.030309,-0.0079 -0.041178,-0.0236 -0.032342,-0.04662 0.00878,-0.02288 0.0045,-0.02923 -0.012611,-0.01866 -0.015552,0.0096 -0.025918,0.0022 -0.025918,-0.01852 0,-0.019 -0.012463,-0.03469 -0.027692,-0.03488 -0.018485,-2.76e-4 -0.016705,-0.0073 0.00535,-0.02123 0.026317,-0.01664 0.027444,-0.02649 0.00554,-0.0484 -0.021906,-0.02191 -0.027575,-0.02097 -0.027846,0.0046 -6.275e-4,0.05864 -0.043215,-0.02828 -0.043967,-0.08972 -5.021e-4,-0.04394 -0.00512,-0.048517 -0.022152,-0.02215 -0.017938,0.02776 -0.022107,0.02593 -0.025324,-0.011076 -0.00211,-0.024367 -0.00233,-0.062089 -4.518e-4,-0.083821 0.00187,-0.021734 -0.011514,-0.04523 -0.029718,-0.052216 -0.018207,-0.00698 -0.033099,-0.036557 -0.033099,-0.065714 0,-0.029158 -0.00824,-0.053013 -0.018316,-0.053013 -0.010078,0 -0.013868,-0.030303 -0.00843,-0.067342 0.00543,-0.037037 0.00123,-0.064827 -0.00937,-0.061754 -0.010591,0.00308 -0.04004,-0.00597 -0.06544,-0.020092 -0.035417,-0.019693 -0.043867,-0.041443 -0.036255,-0.09332 0.00756,-0.051574 0.00146,-0.067641 -0.025817,-0.067641 -0.026193,0 -0.035744,-0.021066 -0.035744,-0.078845 0,-0.043365 -0.00892,-0.073328 -0.01983,-0.066587 -0.018493,0.011428 -0.050808,-0.036665 -0.058579,-0.087179 -0.00189,-0.012184 -0.0108791,-0.042091 -0.0200066,-0.06646 -0.009125,-0.024367 -0.0222098,-0.05926 -0.0290684,-0.077536 -0.006852,-0.018277 -0.009393,-0.043201 -0.00563,-0.055383 0.0172023,-0.055741 0.0160555,-0.1452734 -0.002005,-0.1564355 -0.0109743,-0.00678 -0.0199498,1.279e-4 -0.0199498,0.015366 0,0.015233 -0.0140436,0.00849 -0.0312133,-0.014993 -0.0216588,-0.029594 -0.0247578,-0.054723 -0.0101274,-0.082057 0.0241264,-0.045084 0.001698,-0.1993537 -0.0264319,-0.1819557 -0.0302837,0.018717 -0.0610729,-0.063547 -0.0417619,-0.1115814 0.0098,-0.02437 0.0185148,-0.076355 0.0193689,-0.1155259 0.001082,-0.049726 0.0162837,-0.079101 0.0503417,-0.097329 0.0363449,-0.019451 0.0509376,-0.019651 0.0572281,-7.783e-4 0.004637,0.013931 0.0263288,0.02533 0.0481911,0.02533 0.0218593,0 0.052157,0.014953 0.0673249,0.03323 0.015167,0.018277 0.053771,0.034224 0.085785,0.035439 l 0.058207,0.00221 -0.055383,0.017736 c -0.030461,0.00976 -0.042208,0.018731 -0.02611,0.019942 0.016101,0.00121 0.044227,0.017164 0.062502,0.035439 0.038529,0.038529 0.1408289,0.044853 0.1408289,0.00871 0,-0.01349 0.01469,-0.018886 0.032643,-0.011996 0.017955,0.00688 0.04105,-0.0025 0.051322,-0.020848 0.014807,-0.026457 0.027008,-0.017905 0.058871,0.041261 0.031979,0.059381 0.035073,0.084203 0.015134,0.1214514 -0.013779,0.02575 -0.026367,0.084855 -0.02797,0.1313488 l -0.00292,0.084531 -0.016321,-0.077537 c -0.012861,-0.061098 -0.016868,-0.042308 -0.018896,0.088615 -0.00146,0.092461 0.00539,0.1535904 0.015394,0.1378298 0.012991,-0.020471 0.025254,-0.012338 0.044248,0.029352 0.028962,0.063568 0.017946,0.098661 -0.030976,0.098661 -0.018543,0 -0.031628,0.020889 -0.031218,0.049845 7.03e-4,0.048599 0.00154,0.048769 0.033228,0.00684 0.031561,-0.041728 0.032526,-0.041453 0.032526,0.00923 0,0.028729 0.00616,0.046063 0.013715,0.03852 0.00754,-0.00754 0.029098,0.00166 0.047899,0.020468 0.026466,0.026467 0.027949,0.03804 0.00656,0.051251 -0.020166,0.012466 -0.013497,0.028347 0.024736,0.058911 0.030663,0.024512 0.048909,0.058991 0.044044,0.083236 -0.00518,0.025777 8.534e-4,0.03573 0.015976,0.026385 0.013722,-0.00847 0.024283,3.014e-4 0.024283,0.020226 0,0.019376 0.014953,0.040971 0.033228,0.047986 0.018277,0.00701 0.033229,0.026288 0.033229,0.042832 0,0.034337 0.075633,0.081539 0.096775,0.060398 0.00767,-0.00768 0.015236,-0.00236 0.016761,0.011856 0.00154,0.014214 0.00403,0.038307 0.00554,0.053537 0.00154,0.015231 0.017724,0.027691 0.035999,0.027691 0.018277,0 0.040341,0.00996 0.049035,0.022153 0.00869,0.012184 0.023646,0.023496 0.033229,0.025134 0.063974,0.010944 0.1146127,0.038522 0.1035618,0.056404 -0.00717,0.011614 3.764e-4,0.018876 0.016864,0.016141 0.016454,-0.00274 0.044867,9.791e-4 0.063143,0.00829 0.018277,0.00729 0.053166,0.017683 0.077534,0.023078 0.025999,0.00576 0.013437,0.010865 -0.030404,0.012374 -0.060696,0.00211 -0.069974,0.00827 -0.049463,0.032993 0.029467,0.035507 0.00836,0.1082041 -0.027892,0.096116 -0.013621,-0.00454 -0.038117,0.00511 -0.054439,0.02142 -0.016321,0.016322 -0.03855,0.024192 -0.049393,0.017492 -0.010842,-0.00669 -0.026312,0.014091 -0.034373,0.046209 -0.010294,0.041 -0.019926,0.04987 -0.032356,0.02975 -0.01232,-0.01993 -0.022421,-0.0098 -0.033228,0.03323 -0.00993,0.03959 -0.021455,0.05228 -0.031986,0.03524 -0.025712,-0.04161 -0.1103968,-0.0032 -0.1348803,0.06125 -0.01598,0.04203 -0.014175,0.06199 0.0068,0.0753 0.021082,0.01338 0.018412,0.0182 -0.010219,0.01846 -0.029935,2.76e-4 -0.038767,-0.01817 -0.038767,-0.08089 0,-0.124424 -0.02727,-0.06926 -0.030442,0.06158 -0.00217,0.08963 -0.011049,0.116362 -0.040046,0.120605 -0.02049,0.003 -0.042235,4.52e-4 -0.048317,-0.0056 z m 0.052346,-0.329262 c 0,-0.01899 -0.00996,-0.02838 -0.022155,-0.02085 -0.012184,0.0075 -0.022152,0.02307 -0.022152,0.03454 0,0.01147 0.00996,0.02085 0.022152,0.02085 0.012184,0 0.022155,-0.01554 0.022155,-0.03454 z M 1.3861487,8.1762818 c -0.00614,-0.015231 -0.011173,-0.00276 -0.011173,0.027691 0,0.030461 0.00502,0.042923 0.011173,0.027691 0.00615,-0.015231 0.00615,-0.040154 0,-0.055382 z M 1.0095498,7.5559859 c -0.00614,-0.015231 -0.0111741,-0.00276 -0.0111741,0.027691 0,0.030461 0.005024,0.042923 0.0111741,0.027691 0.00615,-0.015231 0.00615,-0.040154 0,-0.055382 z M 1.0422718,7.406193 C 1.0344818,7.399973 1.0206338,7.385838 1.0114948,7.374809 1.0023648,7.363781 0.9948803,7.381729 0.9948803,7.41471 c 0,0.050104 0.005054,0.055256 0.0307774,0.031384 0.016929,-0.01571 0.024405,-0.033667 0.016614,-0.0399 z M 1.372167,7.290145 C 1.355805,7.249442 1.352129,7.258582 1.352129,7.339991 c 0,0.081408 0.00368,0.090547 0.020038,0.049846 0.011946,-0.029718 0.011946,-0.069973 0,-0.099692 z M 0.95057326,7.2611462 c 0,-0.018997 -0.009965,-0.028375 -0.0221552,-0.020846 -0.0121838,0.00753 -0.0221523,0.023075 -0.0221523,0.03454 0,0.011465 0.009965,0.020846 0.0221523,0.020846 0.0121838,0 0.0221552,-0.015543 0.0221552,-0.03454 z M 1.1277958,6.9190759 c 0,-0.012184 -0.010557,-0.022153 -0.023462,-0.022153 -0.012905,0 -0.0173,0.00996 -0.00977,0.022153 0.00753,0.012184 0.018089,0.022153 0.023462,0.022153 0.00536,0 0.00977,-0.00996 0.00977,-0.022153 z"
       id="path2093-0-2-8" />
    <path
       style="display:inline;fill:none;stroke:#ffffff;stroke-width:0.695099;stroke-linecap:round;stroke-linejoin:miter;stroke-miterlimit:4;stroke-dasharray:none;stroke-opacity:1"
       d="M 8.637943,1.131291 C 6.2144247,-0.27558969 4.4451167,2.0112493 4.5348745,1.895719 c 0,0 0.8381708,-0.5443182 1.9768146,-0.49484 0.8080243,0.035111 1.6906952,0.6147926 1.9864458,1.5037608 0.106313,0.3195557 0.099329,0.8073726 0.060688,1.0676342 C 8.3389147,5.4534356 7.8698553,5.6805255 7.285735,5.9333907 7.0416208,6.0390677 5.7085433,6.2316139 5.7455667,5.7457993 5.7748857,5.3610859 4.6991418,5.3419644 4.4403985,5.4569385"
       id="path8940-6-9-4"
       sodipodi:nodetypes="ccsssssc" />
    <path
       style="display:inline;fill:none;stroke:#ffffff;stroke-width:0.695099;stroke-linecap:butt;stroke-linejoin:miter;stroke-miterlimit:4;stroke-dasharray:none;stroke-opacity:1"
       d="M 5.7296429,5.6501294 C 5.8245622,6.3138026 5.2265665,10.636154 5.139311,11.020471"
       id="path9629-56-0-8"
       sodipodi:nodetypes="cc" />
    <path
       style="display:inline;fill:none;fill-opacity:1;stroke:#ffffff;stroke-width:0.695099;stroke-linecap:round;stroke-linejoin:miter;stroke-miterlimit:4;stroke-dasharray:none;stroke-opacity:1"
       d="m 4.4403985,5.4569385 c -0.00938,0.1193908 0.00915,0.3873399 -0.015707,0.7319777 C 4.3182778,7.6636038 3.9044897,10.550266 3.833759,10.861798"
       id="path9629-6-9-8-0"
       sodipodi:nodetypes="csc" />
    <path
       style="display:inline;fill:none;fill-opacity:1;stroke:#ffffff;stroke-width:0.695099;stroke-linecap:butt;stroke-linejoin:miter;stroke-miterlimit:4;stroke-dasharray:none;stroke-opacity:1"
       d="M 7.6962478,5.5790867 C 8.6337907,6.0860633 9.3745254,8.4055612 9.4338267,9.9308922"
       id="path9629-5-37-8-4"
       sodipodi:nodetypes="cc" />
    <path
       style="display:inline;fill:none;fill-opacity:1;stroke:#ffffff;stroke-width:0.695099;stroke-linecap:butt;stroke-linejoin:miter;stroke-miterlimit:4;stroke-dasharray:none;stroke-opacity:1"
       d="m 8.7636215,3.6681664 c 0.9922003,-0.026423 1.5878955,0.072081 2.3030915,0.5977711"
       id="path9629-5-3-4-5-2"
       sodipodi:nodetypes="cc" />
    <ellipse
       style="display:inline;fill:none;stroke:#ffffff;stroke-width:0.695099;stroke-miterlimit:4;stroke-dasharray:none;stroke-opacity:1"
       id="path6366-5-3-0"
       cy="5.8208332"
       cx="5.8208327"
       rx="5.4732833"
       ry="5.4732838" />
    <ellipse
       style="display:inline;fill:#ffffff;fill-opacity:1;stroke-width:0.695099;stroke-miterlimit:4;stroke-dasharray:none"
       id="path3561"
       cx="7.1052399"
       cy="7.4261813"
       rx="0.41868553"
       ry="0.41869664" />
    <ellipse
       style="display:inline;fill:#ffffff;fill-opacity:1;stroke:none;stroke-width:0.695099;stroke-miterlimit:4;stroke-dasharray:none;stroke-opacity:1"
       id="path3561-3"
       cx="9.6950321"
       cy="5.4214716"
       rx="0.41868553"
       ry="0.41869664" />
  </g>
</svg>
