<?xml version="1.0" encoding="UTF-8" standalone="no"?>
<!-- Created with Inkscape (http://www.inkscape.org/) -->

<svg
   width="11mm"
   height="11mm"
   viewBox="0 0 11 11"
   version="1.1"
   id="svg1202"
   inkscape:version="1.1.2 (0a00cf5339, 2022-02-04)"
   sodipodi:docname="white_github.svg"
   xmlns:inkscape="http://www.inkscape.org/namespaces/inkscape"
   xmlns:sodipodi="http://sodipodi.sourceforge.net/DTD/sodipodi-0.dtd"
   xmlns="http://www.w3.org/2000/svg"
   xmlns:svg="http://www.w3.org/2000/svg">
  <sodipodi:namedview
     id="namedview1204"
     pagecolor="#ffffff"
     bordercolor="#666666"
     borderopacity="1.0"
     inkscape:pageshadow="2"
     inkscape:pageopacity="0.0"
     inkscape:pagecheckerboard="0"
     inkscape:document-units="mm"
     showgrid="false"
     inkscape:zoom="11.431425"
     inkscape:cx="24.887536"
     inkscape:cy="27.99301"
     inkscape:window-width="1920"
     inkscape:window-height="1011"
     inkscape:window-x="0"
     inkscape:window-y="0"
     inkscape:window-maximized="1"
     inkscape:current-layer="g194" />
  <defs
     id="defs1199" />
  <g
     inkscape:label="Layer 1"
     inkscape:groupmode="layer"
     id="layer1"
     transform="translate(-27.582604,-100.67831)">
    <g
       id="g194"
       transform="matrix(0.35277777,0,0,-0.35277777,33.328648,100.67831)">
      <path
         d="M -0.69888411,0 C -9.3079274,0 -16.288,-7.1567187 -16.288,-15.985596 c 0,-7.062512 4.466749,-13.053431 10.6620058,-15.168161 0.7800301,-0.146216 1.0642864,0.347385 1.0642864,0.771312 0,0.378787 -0.013399,1.384634 -0.021056,2.718239 -4.3365842,-0.965613 -5.2515643,2.143188 -5.2515643,2.143188 -0.7092049,1.846832 -1.7313799,2.33847 -1.7313799,2.33847 -1.415539,0.991126 0.107195,0.9715 0.107195,0.9715 1.5648452,-0.112851 2.3879444,-1.647625 2.3879444,-1.647625 1.3906548,-2.442489 3.6493921,-1.736925 4.5375736,-1.327717 0.1416496,1.032342 0.5436283,1.736925 0.9896332,2.136319 -3.4618021,0.40332 -7.1016232,1.775196 -7.1016232,7.900555 0,1.744775 0.607753,3.171604 1.6050434,4.28932 -0.1607915,0.404302 -0.695806,2.0293566 0.1521776,4.2304426 0,0 1.309302,0.4298152 4.2877725,-1.6387934 1.2432627,0.3552354 2.577449,0.5318718 3.90302157,0.5377597 1.32365835,-0.00589 2.65784473,-0.1825243 3.90302153,-0.5377597 2.9765564,2.0686086 4.2829871,1.6387934 4.2829871,1.6387934 0.8508548,-2.201086 0.3158404,-3.8261406 0.1550489,-4.2304426 0.9992041,-1.117716 1.6031292,-2.544545 1.6031292,-4.28932 0,-6.14106 -3.6455637,-7.492328 -7.1188509,-7.887798 0.5598989,-0.4936 1.0585439,-1.469026 1.0585439,-2.960622 0,-2.13632 -0.019142,-3.860487 -0.019142,-4.384509 0,-0.427852 0.280428,-0.925378 1.0719431,-0.769349 6.1904721,2.118655 10.6533921,8.105648 10.6533921,15.166198 C 14.893103,-7.1567187 7.9120733,0 -0.69888421,0"
         style="fill:#ffffff;fill-opacity:1;fill-rule:evenodd;stroke:none;stroke-width:0.969127"
         id="path196" />
    </g>
  </g>
</svg>
